<svg width="25" height="25" viewBox="0 0 25 25" fill="none" xmlns="http://www.w3.org/2000/svg">
<path d="M13.8581 9.8913C13.8581 9.63333 13.9377 9.38115 14.0869 9.16665C14.2362 8.95215 14.4482 8.78497 14.6964 8.68624C14.9445 8.58752 15.2176 8.56169 15.481 8.61202C15.7445 8.66235 15.9864 8.78658 16.1764 8.96899C16.3663 9.15141 16.4956 9.38382 16.548 9.63684C16.6004 9.88986 16.5735 10.1521 16.4707 10.3905C16.368 10.6288 16.1939 10.8325 15.9706 10.9758C15.7472 11.1192 15.4847 11.1957 15.2161 11.1957C14.8559 11.1957 14.5105 11.0582 14.2558 10.8136C14.0011 10.569 13.8581 10.2372 13.8581 9.8913ZM21.6667 6.63043V18.3696C21.6667 18.802 21.4879 19.2167 21.1695 19.5225C20.8512 19.8282 20.4194 20 19.9692 20H5.0309C4.58069 20 4.14892 19.8282 3.83057 19.5225C3.51222 19.2167 3.33337 18.802 3.33337 18.3696V6.63043C3.33337 6.19802 3.51222 5.78331 3.83057 5.47754C4.14892 5.17178 4.58069 5 5.0309 5H19.9692C20.4194 5 20.8512 5.17178 21.1695 5.47754C21.4879 5.78331 21.6667 6.19802 21.6667 6.63043ZM5.37041 6.95652V13.4554L8.24433 10.6951C8.56266 10.3894 8.99436 10.2177 9.44448 10.2177C9.89461 10.2177 10.3263 10.3894 10.6446 10.6951L14.139 14.0489L15.5972 12.6492C15.9155 12.3435 16.3472 12.1718 16.7973 12.1718C17.2475 12.1718 17.6792 12.3435 17.9975 12.6492L19.6297 14.2193V6.95652H5.37041ZM5.37041 18.0435H15.4147L9.44448 12.3092L5.37041 16.2223V18.0435ZM19.6297 18.0435V16.9837L16.7973 14.2633L15.5794 15.4348L18.2954 18.0435H19.6297Z" fill="#999999"/>
</svg>
