<svg width="18" height="18" viewBox="0 0 18 18" fill="none" xmlns="http://www.w3.org/2000/svg">
<g id="Icons_Bin">
<path id="Vector" d="M5.61641 15C5.24572 15 4.92828 14.8693 4.66408 14.608C4.39988 14.3467 4.26801 14.0329 4.26846 13.6667L4.26846 5H3.59448L3.59448 3.66667L6.96435 3.66667V3L11.0082 3V3.66667L14.3781 3.66667V5H13.7041L13.7041 13.6667C13.7041 14.0333 13.572 14.3473 13.3078 14.6087C13.0436 14.87 12.7264 15.0004 12.3561 15L5.61641 15ZM12.3561 5L5.61641 5L5.61641 13.6667L12.3561 13.6667L12.3561 5ZM6.96435 12.3333H8.3123V6.33333H6.96435L6.96435 12.3333ZM9.66025 12.3333L11.0082 12.3333V6.33333H9.66025V12.3333Z" fill="#FF9000"/>
</g>
</svg>
