<svg width="30" height="30" viewBox="0 0 30 30" fill="none" xmlns="http://www.w3.org/2000/svg">
<path fill-rule="evenodd" clip-rule="evenodd" d="M16.9412 7.23529H7.88235C6.85269 7.23529 5.8652 7.64433 5.13712 8.37241C4.40903 9.10049 4 10.088 4 11.1176V18.8824C4 19.912 4.40903 20.8995 5.13712 21.6276C5.8652 22.3557 6.85269 22.7647 7.88235 22.7647H16.9412C17.9708 22.7647 18.9583 22.3557 19.6864 21.6276C20.4145 20.8995 20.8235 19.912 20.8235 18.8824V11.1176C20.8235 10.088 20.4145 9.10049 19.6864 8.37241C18.9583 7.64433 17.9708 7.23529 16.9412 7.23529ZM6.58824 11.1176C6.58824 10.7744 6.72458 10.4453 6.96727 10.2026C7.20997 9.95987 7.53913 9.82353 7.88235 9.82353H16.9412C17.2844 9.82353 17.6136 9.95987 17.8563 10.2026C18.099 10.4453 18.2353 10.7744 18.2353 11.1176V18.8824C18.2353 19.2256 18.099 19.5547 17.8563 19.7974C17.6136 20.0401 17.2844 20.1765 16.9412 20.1765H7.88235C7.53913 20.1765 7.20997 20.0401 6.96727 19.7974C6.72458 19.5547 6.58824 19.2256 6.58824 18.8824V11.1176Z" fill="#999999"/>
<path fill-rule="evenodd" clip-rule="evenodd" d="M23.9733 8.75718L19.4853 11.8385C19.3138 11.9562 19.1732 12.1135 19.0755 12.2971C18.9777 12.4807 18.9256 12.6852 18.9237 12.8932L18.8823 17.0538C18.8802 17.2659 18.9304 17.4753 19.0283 17.6635C19.1263 17.8517 19.269 18.013 19.4439 18.1331L23.9733 21.2428C24.1676 21.3762 24.3947 21.454 24.63 21.4678C24.8652 21.4817 25.0998 21.4309 25.3084 21.3212C25.517 21.2114 25.6916 21.0468 25.8135 20.8451C25.9354 20.6433 25.9998 20.4122 25.9999 20.1765V9.82353C25.9998 9.58784 25.9354 9.35665 25.8135 9.15492C25.6916 8.95318 25.517 8.78855 25.3084 8.6788C25.0998 8.56905 24.8652 8.51835 24.63 8.53216C24.3947 8.54597 24.1676 8.62378 23.9733 8.75718ZM23.4117 17.7176L21.477 16.3899L21.5054 13.5907L23.4117 12.2824V17.7176Z" fill="#999999"/>
</svg>
